<?xml version="1.0" standalone="no"?>
<!DOCTYPE svg PUBLIC "-//W3C//DTD SVG 20010904//EN"
 "http://www.w3.org/TR/2001/REC-SVG-20010904/DTD/svg10.dtd">
<svg version="1.0" xmlns="http://www.w3.org/2000/svg"
 width="1280.000000pt" height="645.000000pt" viewBox="0 0 1280.000000 645.000000"
 preserveAspectRatio="xMidYMid meet">
<g transform="translate(0.000000,645.000000) scale(0.100000,-0.100000)"
fill="#000000" stroke="none">
<path d="M11660 6401 c-231 -80 -329 -134 -525 -291 -161 -129 -172 -136 -237
-153 -66 -17 -81 -11 -107 44 -14 29 -21 34 -51 34 -23 0 -52 11 -84 33 -27
17 -55 32 -61 32 -6 0 -24 -13 -38 -29 -16 -19 -41 -33 -64 -37 -55 -10 -80
-30 -96 -77 -17 -54 -82 -103 -121 -93 -27 7 -70 65 -88 120 -15 44 -27 56
-55 56 -22 0 -24 -3 -19 -27 3 -16 26 -67 51 -116 25 -48 45 -89 45 -91 0 -2
-41 -38 -90 -81 -50 -43 -89 -83 -87 -89 5 -14 -162 -52 -313 -71 -132 -16
-155 -23 -227 -71 -53 -35 -66 -54 -38 -54 8 0 15 -7 15 -15 0 -15 -5 -16
-105 -20 -22 -1 -84 2 -137 6 -105 9 -135 3 -201 -38 -36 -23 -77 -24 -77 -2
0 14 -124 132 -128 120 -2 -5 4 -33 12 -62 9 -29 16 -61 16 -70 0 -26 -35 -42
-61 -29 -25 14 -19 35 10 34 26 -1 26 -2 1 46 -26 51 -49 63 -106 54 -69 -10
-87 -30 -92 -103 -4 -53 -9 -67 -37 -97 -18 -19 -38 -34 -45 -34 -14 0 -78 64
-178 178 -52 59 -69 72 -93 72 -16 0 -29 -5 -29 -11 0 -6 21 -32 48 -58 26
-25 84 -88 130 -138 94 -104 93 -99 19 -172 -25 -24 -43 -49 -40 -57 7 -20
-25 -31 -112 -38 -242 -21 -300 -28 -329 -39 -91 -36 -143 -77 -97 -77 20 0
38 -17 28 -27 -12 -11 -256 -13 -342 -2 -103 12 -167 0 -238 -47 -46 -30 -67
-26 -67 16 0 40 -14 38 -45 -7 l-25 -38 40 -7 c22 -4 45 -10 50 -13 18 -11 11
-25 -12 -24 -13 0 -43 -2 -68 -6 -62 -10 -175 -13 -239 -7 l-53 5 23 18 c22
16 22 19 9 45 -8 14 -25 33 -38 42 -19 13 -27 13 -47 2 -16 -8 -25 -22 -25
-36 0 -21 -4 -23 -30 -18 -44 9 -88 -13 -110 -56 -12 -24 -29 -40 -46 -44 -15
-4 -60 -23 -99 -42 -40 -19 -87 -34 -103 -34 -17 0 -71 14 -122 31 -66 22 -95
28 -103 20 -17 -17 16 -45 79 -67 77 -26 86 -40 49 -72 -17 -14 -59 -52 -95
-85 -55 -50 -160 -118 -160 -103 0 10 -91 -34 -135 -64 -24 -16 -46 -30 -50
-30 -12 0 -129 -88 -158 -118 -23 -24 -26 -30 -13 -35 9 -4 16 -13 16 -21 0
-10 -17 -17 -57 -22 -82 -10 -182 -46 -244 -88 -37 -25 -65 -36 -90 -36 -23 0
-42 -7 -53 -19 -22 -25 -46 -16 -46 16 0 19 -9 28 -42 43 -73 32 -110 34 -141
10 -15 -12 -27 -26 -27 -32 0 -38 -91 -108 -142 -108 -35 0 -118 -56 -118 -80
0 -24 -52 -40 -125 -38 -70 2 -160 -17 -194 -42 -16 -11 -57 -35 -91 -53 -35
-17 -72 -37 -84 -44 -11 -6 -77 -14 -146 -16 -69 -3 -155 -11 -192 -17 -63
-11 -71 -10 -130 13 -187 75 -238 89 -238 68 0 -5 19 -20 42 -33 59 -32 59
-49 -1 -82 -46 -25 -84 -61 -93 -88 -9 -25 -57 3 -89 52 -20 32 -39 50 -52 50
-19 0 -19 -1 1 -33 11 -19 27 -45 36 -59 16 -24 16 -27 0 -43 -10 -9 -79 -48
-155 -85 -155 -76 -297 -171 -391 -260 -68 -66 -104 -85 -278 -150 -115 -44
-171 -75 -244 -137 -67 -56 -81 -47 -141 90 -21 48 -45 93 -53 100 -13 10 -14
8 -8 -11 5 -13 28 -68 52 -123 41 -92 55 -149 37 -149 -5 0 -30 11 -57 25 -52
26 -85 31 -114 16 -9 -5 -30 -13 -46 -17 -17 -5 -37 -22 -46 -39 -9 -16 -48
-52 -87 -80 -39 -27 -95 -71 -126 -97 -30 -27 -64 -48 -75 -48 -32 0 -52 -11
-52 -29 0 -39 -95 -116 -236 -190 -115 -61 -152 -87 -211 -146 -76 -76 -95
-85 -189 -85 -49 0 -85 22 -66 41 22 23 12 33 -11 11 -45 -43 -129 -21 -140
35 -4 20 -18 35 -45 51 -56 31 -83 28 -121 -13 -59 -65 -91 -42 -172 121 -53
106 -74 137 -60 86 10 -34 43 -100 87 -173 38 -64 43 -98 16 -123 -16 -13 -24
-14 -51 -5 -46 16 -93 3 -135 -37 -20 -19 -36 -39 -36 -44 0 -14 -39 -32 -94
-45 -48 -11 -50 -13 -67 -63 -17 -50 -17 -52 1 -52 18 0 54 26 120 86 19 17
53 37 75 44 22 7 66 23 98 37 53 22 61 23 81 10 12 -8 28 -35 36 -58 16 -52
25 -65 34 -50 10 15 111 14 123 -2 6 -6 18 -37 28 -67 9 -30 24 -62 33 -70 13
-13 14 -13 10 0 -28 82 -40 131 -35 144 11 28 106 66 167 66 74 1 123 13 264
66 170 64 229 98 327 190 83 79 133 114 162 114 32 0 273 84 377 130 73 34
123 50 150 50 43 0 110 28 146 62 12 10 50 26 85 34 91 21 101 27 54 33 -30 5
-43 13 -55 34 -14 27 -14 29 15 53 17 13 68 47 115 76 47 28 129 82 182 120
56 40 144 90 206 117 126 56 238 119 377 210 132 87 164 101 265 112 102 11
224 32 305 53 33 8 107 22 164 31 114 17 132 23 107 37 -55 31 44 83 197 104
130 18 147 24 290 95 65 33 128 59 140 59 12 0 91 12 175 26 161 27 182 25
182 -17 0 -10 -43 -60 -95 -112 -68 -68 -95 -101 -95 -118 1 -24 1 -24 27 6
14 17 66 72 115 124 105 110 93 108 250 32 71 -35 106 -47 113 -40 12 12 -18
39 -89 81 -25 15 -46 31 -45 35 0 11 73 65 149 112 36 22 105 76 154 120 64
57 100 81 125 86 20 3 82 28 138 55 88 43 116 63 217 159 128 122 150 133 291
146 116 10 277 35 332 51 61 18 84 13 98 -18 8 -19 19 -24 63 -26 66 -4 87 9
141 82 29 39 49 56 72 61 29 7 31 9 26 43 -5 26 -1 42 14 64 29 40 46 47 166
63 133 17 250 44 368 84 72 25 107 31 175 31 134 1 327 49 460 115 51 26 89
36 165 45 54 6 130 23 168 37 63 22 70 23 86 9 18 -17 43 -21 54 -9 4 3 36 18
71 32 40 16 90 48 131 84 84 72 91 72 311 7 175 -52 199 -56 224 -40 22 15 10
20 -171 79 -187 61 -195 72 -84 106 39 12 93 31 120 42 28 11 75 23 105 27 30
4 89 15 130 26 41 10 100 21 129 25 98 12 186 51 309 140 32 23 37 23 181 18
96 -4 176 -2 228 7 76 11 82 11 128 -12 35 -16 55 -34 71 -63 11 -22 38 -69
58 -105 58 -100 58 -102 -61 -184 -56 -39 -138 -93 -183 -121 -78 -48 -136
-88 -230 -157 -24 -18 -90 -78 -145 -134 -87 -87 -116 -109 -204 -154 -56 -29
-141 -80 -189 -112 -48 -33 -144 -97 -213 -143 -106 -71 -140 -101 -217 -188
-83 -96 -96 -107 -164 -135 -40 -17 -95 -43 -122 -57 -27 -14 -54 -25 -61 -25
-6 0 -28 -9 -50 -20 -22 -11 -50 -20 -63 -20 -30 0 -91 32 -120 63 l-23 25 21
42 c12 24 20 55 18 73 -3 31 -5 29 -53 -48 -27 -44 -93 -146 -146 -227 -85
-128 -98 -154 -104 -203 -4 -30 -5 -68 -2 -83 7 -36 -10 -64 -61 -102 -24 -17
-78 -64 -120 -104 -97 -92 -171 -142 -221 -151 -22 -4 -45 -13 -52 -21 -6 -8
-18 -14 -26 -14 -24 0 -125 -51 -183 -93 -75 -55 -170 -148 -170 -167 0 -18
-35 -40 -232 -142 -127 -67 -292 -219 -368 -340 -18 -28 -44 -50 -90 -74 -36
-19 -74 -34 -85 -34 -14 1 -38 28 -80 90 -55 82 -93 115 -111 97 -3 -3 24 -47
60 -98 37 -50 65 -97 63 -103 -6 -19 -34 -18 -54 1 -45 46 -49 46 -103 22 -27
-12 -50 -26 -50 -31 0 -4 -10 -8 -23 -8 -40 0 -59 -22 -64 -76 -3 -27 -13 -60
-23 -74 -9 -14 -54 -96 -98 -184 -116 -224 -120 -229 -237 -298 -55 -32 -113
-65 -130 -73 -67 -32 -194 -173 -264 -294 -38 -64 -49 -74 -114 -110 -40 -22
-76 -43 -82 -48 -5 -5 -27 -21 -48 -37 -22 -17 -77 -88 -132 -172 -105 -159
-100 -156 -190 -128 -69 21 -336 65 -357 58 -36 -11 -19 -32 31 -39 58 -8 71
-20 81 -77 7 -37 5 -46 -16 -71 -14 -16 -24 -41 -24 -58 0 -22 -13 -44 -49
-83 -61 -64 -109 -142 -151 -246 -24 -58 -43 -90 -76 -120 -24 -22 -44 -45
-44 -50 0 -14 83 -37 87 -24 2 5 20 38 40 71 29 50 54 75 132 131 91 67 109
76 139 73 20 -2 15 -20 -34 -131 -65 -147 -86 -212 -74 -224 14 -14 24 0 47
69 11 33 53 136 94 229 66 153 76 170 106 182 18 8 40 14 48 14 26 0 116 -100
142 -157 27 -58 53 -70 53 -25 0 31 -36 92 -93 160 -21 24 -37 48 -37 53 0 9
51 59 61 59 15 0 31 61 25 97 -3 21 -3 43 1 48 5 6 41 37 81 69 93 75 229 219
294 313 39 55 68 83 122 118 47 31 141 117 281 259 208 212 250 246 300 246
20 0 25 -5 25 -26 0 -31 15 -24 24 12 14 56 54 100 126 142 63 36 81 42 132
42 77 0 108 -17 159 -90 35 -50 50 -63 96 -80 70 -26 85 -26 81 2 -2 13 -30
43 -73 75 -79 59 -145 130 -145 154 0 9 9 24 19 33 21 20 41 94 41 156 0 61
83 143 233 232 153 91 245 163 387 307 90 91 126 121 165 135 67 26 202 101
360 201 189 120 241 160 362 277 73 70 139 128 146 128 8 0 19 -6 25 -13 17
-20 72 -297 72 -361 0 -86 30 -67 32 21 1 21 -11 107 -26 191 -19 108 -24 157
-17 166 28 33 113 67 192 76 86 10 109 22 132 69 8 16 68 59 172 122 168 101
225 145 225 174 0 16 -1 16 -22 1 -69 -49 -202 -134 -266 -168 -59 -31 -76
-37 -92 -28 -44 23 -23 55 85 128 33 22 96 73 141 113 49 45 117 94 175 125
323 176 373 211 570 402 l148 143 208 111 c306 162 394 205 498 243 51 18 107
41 124 49 43 23 99 74 116 106 10 19 30 33 62 44 26 9 78 35 115 57 59 36 74
41 107 35 69 -11 225 -66 275 -97 51 -31 76 -32 76 -2 -1 44 -35 64 -197 117
l-113 38 0 33 c0 50 25 69 140 104 200 61 402 161 579 287 58 41 112 74 121
74 41 0 336 107 458 166 142 69 245 132 237 145 -3 4 -50 22 -103 40 l-98 32
-115 -54 c-134 -63 -241 -127 -330 -196 -75 -59 -129 -88 -182 -97 -55 -10
-264 -81 -387 -131 -94 -38 -226 -110 -328 -180 l-34 -23 -66 19 c-37 11 -110
22 -162 25 -99 7 -140 22 -140 52 0 9 57 69 127 132 70 63 141 129 158 145 16
17 46 41 65 54 19 13 49 37 65 52 17 15 59 39 94 53 104 42 368 204 479 293
24 20 59 43 78 52 l36 18 -60 21 c-32 12 -61 21 -63 21 -2 -1 -65 -23 -139
-48z m-682 -550 c-4 -27 -148 -150 -174 -151 -31 0 -39 29 -16 59 23 31 149
111 175 111 13 0 17 -6 15 -19z m-594 -37 c21 -8 21 -53 0 -61 -18 -7 -45 6
-51 24 -2 6 3 18 12 27 19 18 18 18 39 10z m-93 -94 c15 -12 49 -30 74 -41 83
-37 48 -57 -106 -59 -145 -2 -149 -2 -149 15 0 8 7 15 16 15 9 0 25 12 37 26
20 26 74 64 90 64 5 0 22 -9 38 -20z m-200 -85 c0 -13 -41 -19 -41 -7 0 11 20
22 33 18 5 -1 8 -6 8 -11z m673 -166 c36 -28 32 -63 -7 -67 -16 -2 -35 2 -43
9 -17 14 -19 65 -1 72 20 9 23 8 51 -14z m-1834 -269 c0 -5 -4 -10 -9 -10 -6
0 -13 5 -16 10 -3 6 1 10 9 10 9 0 16 -4 16 -10z m-336 -82 c12 -17 13 -25 3
-36 -16 -20 -87 -51 -103 -45 -44 17 3 103 56 103 18 0 35 -8 44 -22z m2036
-32 c0 -12 -75 -66 -171 -124 -32 -19 -38 -20 -49 -7 -16 20 13 45 116 102 84
46 104 51 104 29z m-3300 -326 c0 -5 -7 -10 -16 -10 -8 0 -12 5 -9 10 3 6 10
10 16 10 5 0 9 -4 9 -10z m-450 -110 c0 -5 -2 -10 -4 -10 -3 0 -8 5 -11 10 -3
6 -1 10 4 10 6 0 11 -4 11 -10z m-235 -24 c21 -15 15 -46 -9 -46 -53 0 -89 44
-43 53 12 2 25 5 28 6 3 0 14 -5 24 -13z m265 -50 c0 -17 -27 -29 -35 -16 -4
6 -3 15 0 20 9 15 35 12 35 -4z m-328 -32 c82 -7 115 -21 105 -46 -6 -18 -57
-32 -196 -52 -132 -20 -155 -20 -172 0 -12 15 -9 21 24 49 53 46 97 66 132 61
17 -3 65 -8 107 -12z m-1492 -604 c0 -5 -7 -10 -15 -10 -8 0 -15 5 -15 10 0 6
7 10 15 10 8 0 15 -4 15 -10z m3548 -14 c15 -8 35 -23 45 -34 30 -33 3 -49
-84 -48 -85 1 -96 14 -59 66 24 34 54 39 98 16z m-3442 -57 c3 -6 2 -15 -3
-20 -13 -13 -43 -1 -43 17 0 16 36 19 46 3z m-237 -73 c15 -18 -2 -32 -49 -40
-60 -11 -80 23 -26 44 32 13 62 12 75 -4z m3587 -70 c9 -23 -15 -56 -40 -56
-41 0 -42 35 -1 58 27 15 35 15 41 -2z m232 -52 c4 -26 -22 -38 -49 -24 -21
12 -21 12 -13 35 10 24 58 16 62 -11z m-5045 -193 c25 -25 -47 -44 -82 -22
-13 8 -13 12 -1 26 14 17 64 15 83 -4z m-548 -281 c0 -21 -113 -86 -127 -72
-15 15 -3 29 51 63 48 31 76 34 76 9z m-1231 -640 c38 -14 32 -37 -15 -60 -42
-22 -90 -23 -96 -3 -6 17 40 57 84 72 1 1 13 -3 27 -9z m54 -92 c-10 -32 -289
-144 -325 -131 -21 8 -15 31 12 49 33 22 253 93 288 94 18 0 27 -5 25 -12z
m4410 -400 c17 -17 15 -48 -8 -93 -11 -22 -20 -45 -20 -51 0 -18 -58 -57 -75
-50 -24 9 -18 51 16 119 46 91 59 103 87 75z m-5628 -108 c0 -5 -7 -10 -15
-10 -8 0 -15 5 -15 10 0 6 7 10 15 10 8 0 15 -4 15 -10z m-200 -71 c0 -5 -7
-9 -15 -9 -15 0 -20 12 -9 23 8 8 24 -1 24 -14z m4340 -1135 c0 -9 -7 -14 -17
-12 -25 5 -28 28 -4 28 12 0 21 -6 21 -16z m-59 -232 c12 -11 20 -25 17 -33
-7 -18 -157 -126 -182 -131 -10 -1 -23 4 -29 13 -8 13 -3 26 23 60 86 112 121
131 171 91z"/>
<path d="M5211 4045 c-46 -53 -38 -67 9 -16 22 24 40 45 40 47 0 13 -22 -1
-49 -31z"/>
<path d="M6243 1660 c-33 -20 -46 -60 -20 -60 16 0 67 52 67 68 0 17 -10 15
-47 -8z"/>
<path d="M35 1585 c51 -22 82 -26 40 -5 -22 11 -47 19 -55 19 -8 0 -2 -6 15
-14z"/>
</g>
</svg>
